<svg xmlns="http://www.w3.org/2000/svg" xmlns:xlink="http://www.w3.org/1999/xlink" width="200" zoomAndPan="magnify" viewBox="0 0 150 60" height="80" preserveAspectRatio="xMidYMid meet" version="1.0"><defs><g/><clipPath id="ae66154825"><path d="M 1.949219 40.539062 L 55.15625 40.539062 L 55.15625 56 L 1.949219 56 Z M 1.949219 40.539062 " clip-rule="nonzero"/></clipPath></defs><g fill="#806252" fill-opacity="1"><g transform="translate(3.321198, 34.671495)"><g><path d="M -1.097656 2.0625 C 1.117188 2.0625 3.175781 -0.0703125 3.175781 -3.367188 L 3.175781 -9.84375 C 3.175781 -11.25 3.332031 -11.644531 3.863281 -11.800781 L 3.863281 -12.023438 L 1.097656 -12.023438 L 1.097656 -11.800781 C 1.632812 -11.644531 1.785156 -11.25 1.785156 -9.84375 L 1.785156 -1.269531 C 1.785156 0.464844 1.289062 0.894531 0.875 1.152344 C 0.0507812 0.980469 -0.359375 0.894531 -0.839844 0.894531 C -1.441406 0.894531 -1.785156 1.324219 -1.785156 1.683594 C -1.785156 2.007812 -1.546875 2.0625 -1.097656 2.0625 Z M -1.097656 2.0625 "/></g></g></g><g fill="#806252" fill-opacity="1"><g transform="translate(8.059052, 34.671495)"><g><path d="M -0.292969 0 L 1.648438 0 L 1.648438 -0.222656 C 1.066406 -0.34375 0.996094 -0.910156 1.441406 -2.027344 L 2.457031 -4.535156 L 7.300781 -4.535156 L 8.347656 -2.007812 C 8.898438 -0.722656 9.035156 -0.378906 8.503906 -0.222656 L 8.503906 0 L 11.164062 0 L 11.164062 -0.222656 C 10.804688 -0.378906 10.390625 -0.722656 9.859375 -2.007812 L 5.632812 -12.160156 L 4.34375 -11.578125 L 4.5 -11.214844 C 4.636719 -10.941406 4.65625 -10.71875 4.535156 -10.410156 L 1.152344 -2.027344 C 0.617188 -0.722656 0.1875 -0.378906 -0.292969 -0.222656 Z M 2.558594 -4.792969 L 4.84375 -10.441406 L 7.195312 -4.792969 Z M 2.558594 -4.792969 "/></g></g></g><g fill="#806252" fill-opacity="1"><g transform="translate(19.062546, 34.671495)"><g><path d="M 11.953125 3.003906 C 12.847656 3.003906 13.585938 2.265625 14.410156 1.304688 L 14.273438 1.183594 C 13.828125 1.648438 13.277344 1.90625 12.488281 1.90625 C 11.097656 1.90625 9.757812 1.082031 8.382812 0.0351562 C 10.820312 -0.480469 13.089844 -2.386719 13.089844 -5.960938 C 13.089844 -10.167969 9.910156 -12.160156 7.007812 -12.160156 C 3.367188 -12.160156 0.894531 -9.550781 0.894531 -6.027344 C 0.894531 -1.769531 4.089844 0.171875 7.007812 0.171875 C 7.351562 0.171875 7.710938 0.136719 8.074219 0.0859375 C 8.898438 1.167969 10.441406 3.003906 11.953125 3.003906 Z M 2.265625 -7.023438 C 2.164062 -9.824219 3.691406 -11.765625 6.304688 -11.765625 C 9.378906 -11.765625 11.628906 -8.417969 11.75 -4.828125 C 11.835938 -2.25 10.476562 -0.257812 7.730469 -0.257812 C 4.65625 -0.257812 2.386719 -3.574219 2.265625 -7.023438 Z M 2.265625 -7.023438 "/></g></g></g><g fill="#806252" fill-opacity="1"><g transform="translate(33.01862, 34.671495)"><g><path d="M 6.199219 0.171875 C 8.589844 0.171875 10.476562 -1.132812 10.476562 -4.585938 L 10.476562 -9.84375 C 10.476562 -11.25 10.648438 -11.644531 11.164062 -11.800781 L 11.164062 -12.023438 L 9.035156 -12.023438 L 9.035156 -11.800781 C 9.789062 -11.59375 10.203125 -11.113281 10.203125 -9.15625 L 10.203125 -4.535156 C 10.203125 -1.167969 8.226562 -0.1875 6.75 -0.1875 C 4.515625 -0.1875 2.75 -1.339844 2.75 -4.535156 L 2.75 -9.84375 C 2.75 -11.25 2.921875 -11.644531 3.433594 -11.800781 L 3.433594 -12.023438 L 0.652344 -12.023438 L 0.652344 -11.800781 C 1.183594 -11.644531 1.339844 -11.25 1.339844 -9.84375 L 1.339844 -4.429688 C 1.339844 -0.980469 3.746094 0.171875 6.199219 0.171875 Z M 6.199219 0.171875 "/></g></g></g><g fill="#806252" fill-opacity="1"><g transform="translate(44.674431, 34.671495)"><g><path d="M 0.875 0 L 9.34375 0 L 9.480469 -2.285156 L 9.292969 -2.320312 C 8.675781 -0.722656 7.625 -0.257812 5.976562 -0.257812 L 3.746094 -0.257812 C 3.246094 -0.257812 2.972656 -0.53125 2.972656 -1.03125 L 2.972656 -6.304688 L 5.171875 -6.304688 C 7.128906 -6.304688 7.625 -5.910156 7.832031 -5.136719 L 8.039062 -5.136719 L 8.039062 -7.730469 L 7.832031 -7.730469 C 7.625 -6.957031 7.128906 -6.5625 5.171875 -6.5625 L 2.972656 -6.5625 L 2.972656 -11.765625 L 5.496094 -11.765625 C 7.25 -11.765625 8.261719 -11.25 8.863281 -9.738281 L 9.050781 -9.789062 L 8.863281 -12.023438 L 0.875 -12.023438 L 0.875 -11.800781 C 1.390625 -11.644531 1.5625 -11.25 1.5625 -9.84375 L 1.5625 -2.179688 C 1.5625 -0.773438 1.390625 -0.378906 0.875 -0.222656 Z M 0.875 0 "/></g></g></g><g fill="#806252" fill-opacity="1"><g transform="translate(54.785293, 34.671495)"><g><path d="M 0.875 0 L 8.863281 0 L 8.984375 -1.941406 L 8.792969 -1.976562 C 8.191406 -0.6875 7.4375 -0.273438 5.789062 -0.273438 L 3.746094 -0.273438 C 3.246094 -0.273438 2.972656 -0.550781 2.972656 -1.046875 L 2.972656 -9.84375 C 2.972656 -11.25 3.125 -11.644531 3.660156 -11.800781 L 3.660156 -12.023438 L 0.875 -12.023438 L 0.875 -11.800781 C 1.390625 -11.644531 1.5625 -11.25 1.5625 -9.84375 L 1.5625 -2.179688 C 1.5625 -0.773438 1.390625 -0.378906 0.875 -0.222656 Z M 0.875 0 "/></g></g></g><g fill="#806252" fill-opacity="1"><g transform="translate(64.106507, 34.671495)"><g><path d="M 0.875 0 L 3.660156 0 L 3.660156 -0.222656 C 3.125 -0.378906 2.972656 -0.773438 2.972656 -2.179688 L 2.972656 -9.84375 C 2.972656 -11.25 3.125 -11.644531 3.660156 -11.800781 L 3.660156 -12.023438 L 0.875 -12.023438 L 0.875 -11.800781 C 1.390625 -11.644531 1.5625 -11.25 1.5625 -9.84375 L 1.5625 -2.179688 C 1.5625 -0.773438 1.390625 -0.378906 0.875 -0.222656 Z M 0.875 0 "/></g></g></g><g fill="#806252" fill-opacity="1"><g transform="translate(68.63837, 34.671495)"><g><path d="M 9.945312 0.136719 L 10.167969 0.136719 L 10.167969 -9.84375 C 10.167969 -11.25 10.324219 -11.644531 10.855469 -11.800781 L 10.855469 -12.023438 L 8.691406 -12.023438 L 8.691406 -11.800781 C 9.464844 -11.59375 9.875 -11.113281 9.875 -9.15625 L 9.875 -2.300781 L 2.371094 -12.023438 L 0.6875 -12.023438 L 0.6875 -11.800781 C 1.375 -11.644531 1.582031 -11.25 1.582031 -9.84375 L 1.582031 -2.179688 C 1.582031 -0.773438 1.410156 -0.378906 0.894531 -0.222656 L 0.894531 0 L 3.039062 0 L 3.039062 -0.222656 C 2.265625 -0.429688 1.855469 -0.910156 1.855469 -2.867188 L 1.855469 -10.390625 Z M 9.945312 0.136719 "/></g></g></g><g fill="#806252" fill-opacity="1"><g transform="translate(80.174024, 34.671495)"><g><path d="M 0.875 0 L 9.34375 0 L 9.480469 -2.285156 L 9.292969 -2.320312 C 8.675781 -0.722656 7.625 -0.257812 5.976562 -0.257812 L 3.746094 -0.257812 C 3.246094 -0.257812 2.972656 -0.53125 2.972656 -1.03125 L 2.972656 -6.304688 L 5.171875 -6.304688 C 7.128906 -6.304688 7.625 -5.910156 7.832031 -5.136719 L 8.039062 -5.136719 L 8.039062 -7.730469 L 7.832031 -7.730469 C 7.625 -6.957031 7.128906 -6.5625 5.171875 -6.5625 L 2.972656 -6.5625 L 2.972656 -11.765625 L 5.496094 -11.765625 C 7.25 -11.765625 8.261719 -11.25 8.863281 -9.738281 L 9.050781 -9.789062 L 8.863281 -12.023438 L 0.875 -12.023438 L 0.875 -11.800781 C 1.390625 -11.644531 1.5625 -11.25 1.5625 -9.84375 L 1.5625 -2.179688 C 1.5625 -0.773438 1.390625 -0.378906 0.875 -0.222656 Z M 0.875 0 "/></g></g></g><g fill="#c28b13" fill-opacity="1"><g transform="translate(88.632195, 32.310705)"><g><path d="M 6.230469 1.839844 C 6.519531 0.398438 6.832031 -1.042969 7.140625 -2.484375 C 7.164062 -2.59375 7.097656 -2.90625 7.429688 -2.75 C 8.671875 -2.195312 9.980469 -2.21875 11.289062 -2.4375 C 11.574219 -2.484375 11.707031 -2.417969 11.863281 -2.195312 C 12.21875 -1.617188 12.527344 -1.019531 12.839844 -0.398438 C 13.214844 0.332031 13.527344 1.085938 13.992188 1.773438 C 14.65625 2.726562 15.566406 3.28125 16.765625 3.214844 C 17.984375 3.171875 19.070312 2.683594 20.070312 2.039062 C 22.332031 0.578125 24.105469 -1.464844 26.011719 -3.328125 C 26.078125 -3.394531 26.234375 -3.480469 26.121094 -3.59375 C 26.011719 -3.703125 25.855469 -3.660156 25.746094 -3.546875 C 25.570312 -3.371094 25.390625 -3.214844 25.214844 -3.039062 C 23.550781 -1.53125 21.953125 0.0664062 20.113281 1.375 C 19.25 1.996094 18.363281 2.503906 17.320312 2.773438 C 16.542969 2.972656 15.878906 2.773438 15.324219 2.195312 C 15.011719 1.839844 14.769531 1.441406 14.570312 1.019531 C 14.015625 -0.175781 13.527344 -1.417969 12.773438 -2.503906 C 12.617188 -2.726562 12.796875 -2.726562 12.929688 -2.773438 C 16.433594 -3.703125 19.46875 -5.5 22.332031 -7.671875 C 25.414062 -9.980469 27.984375 -12.75 29.78125 -16.1875 C 30.511719 -17.585938 30.914062 -19.050781 30.890625 -20.644531 C 30.824219 -22.398438 29.804688 -23.816406 28.164062 -24.414062 C 26.964844 -24.882812 25.722656 -24.925781 24.480469 -24.792969 C 22.066406 -24.527344 19.9375 -23.527344 18.007812 -22.085938 C 15.101562 -19.914062 12.882812 -17.164062 11.132812 -14.039062 C 10.535156 -12.972656 9.914062 -11.910156 9.292969 -10.84375 C 9.269531 -10.84375 9.269531 -10.867188 9.246094 -10.867188 C 9.269531 -10.976562 9.269531 -11.066406 9.3125 -11.175781 C 10 -13.726562 10.800781 -16.277344 11.839844 -18.714844 C 12.75 -20.800781 13.703125 -22.820312 15.144531 -24.570312 C 15.699219 -25.28125 16.253906 -25.988281 17.074219 -26.410156 C 17.140625 -26.457031 17.207031 -26.476562 17.207031 -26.566406 C 17.207031 -26.65625 17.097656 -26.65625 17.03125 -26.675781 C 16.699219 -26.722656 16.410156 -26.589844 16.144531 -26.410156 C 15.011719 -25.679688 14.171875 -24.679688 13.417969 -23.617188 C 11.421875 -20.800781 9.914062 -17.71875 8.804688 -14.4375 C 6.71875 -8.226562 5.101562 -1.90625 4.5 4.65625 C 4.480469 4.902344 4.480469 5.121094 4.5 5.367188 C 4.546875 5.65625 4.769531 5.765625 5.054688 5.765625 C 5.367188 5.765625 5.253906 5.523438 5.253906 5.34375 C 5.277344 5.1875 5.320312 5.011719 5.367188 4.855469 C 5.609375 3.859375 6.03125 2.882812 6.230469 1.839844 Z M 8.273438 -6.164062 C 9.890625 -10.398438 12.085938 -14.324219 14.859375 -17.894531 C 16.675781 -20.222656 18.847656 -22.152344 21.554688 -23.394531 C 22.730469 -23.925781 23.972656 -24.261719 25.300781 -24.328125 C 25.746094 -24.347656 26.167969 -24.304688 26.609375 -24.214844 C 28.539062 -23.816406 29.671875 -22.265625 29.515625 -20.179688 C 29.40625 -18.515625 28.871094 -16.988281 28.074219 -15.546875 C 25.769531 -11.421875 22.417969 -8.359375 18.496094 -5.875 C 16.675781 -4.722656 14.769531 -3.859375 12.707031 -3.261719 C 12.394531 -3.171875 12.195312 -3.171875 11.953125 -3.4375 C 11.042969 -4.367188 9.914062 -4.746094 8.625 -4.746094 C 8.359375 -4.746094 8.070312 -4.722656 7.738281 -4.703125 C 7.9375 -5.210938 8.09375 -5.675781 8.273438 -6.164062 Z M 7.449219 -3.726562 C 7.515625 -4.015625 7.652344 -4.148438 7.917969 -4.214844 C 8.605469 -4.390625 9.246094 -4.28125 9.867188 -4.015625 C 10.378906 -3.792969 10.800781 -3.414062 11.242188 -2.949219 C 10.398438 -2.773438 9.644531 -2.660156 8.847656 -2.816406 C 8.449219 -2.90625 8.070312 -3.039062 7.738281 -3.261719 C 7.585938 -3.371094 7.382812 -3.4375 7.449219 -3.726562 Z M 7.449219 -3.726562 "/></g></g></g><g fill="#c28b13" fill-opacity="1"><g transform="translate(113.977126, 32.310705)"><g><path d="M 4.257812 0.910156 C 6.34375 0.132812 10.644531 -3.148438 14.792969 -3.703125 C 14.65625 -3.992188 14.457031 -3.992188 14.28125 -3.992188 C 10.667969 -3.59375 5.921875 -0.464844 4.523438 0.199219 C 3.902344 0.488281 3.261719 0.6875 2.550781 0.753906 C 2.039062 0.796875 1.574219 0.6875 1.21875 0.265625 C 0.378906 -0.820312 0.308594 -1.953125 0.863281 -3.171875 C 0.976562 -3.414062 1.109375 -3.546875 1.417969 -3.460938 C 1.839844 -3.347656 2.261719 -3.371094 2.683594 -3.503906 C 3.546875 -3.792969 4.257812 -4.324219 4.902344 -4.945312 C 5.011719 -5.054688 5.078125 -5.167969 5.144531 -5.300781 C 5.320312 -5.65625 5.253906 -6.007812 4.921875 -6.253906 C 4.390625 -6.628906 3.8125 -6.851562 3.171875 -6.652344 C 1.507812 -6.164062 0.242188 -5.1875 -0.378906 -3.527344 C -0.753906 -2.503906 -0.644531 -1.53125 -0.109375 -0.644531 C 0.976562 1.132812 2.261719 1.664062 4.257812 0.910156 Z M 4.214844 -5.808594 C 3.945312 -4.988281 2.503906 -4.082031 1.617188 -4.167969 C 1.972656 -4.945312 3.414062 -5.855469 4.214844 -5.808594 Z M 4.214844 -5.808594 "/></g></g></g><g fill="#c28b13" fill-opacity="1"><g transform="translate(128.434601, 32.310705)"><g><path d="M 1.773438 -5.34375 C 1.484375 -5.589844 1.242188 -5.589844 0.953125 -5.320312 C 0.84375 -5.210938 0.730469 -5.101562 0.621094 -4.988281 C -0.730469 -3.171875 -1.796875 -1.242188 -2.019531 1.0625 C -2.105469 1.664062 -2.085938 2.261719 -1.953125 2.859375 C -1.839844 3.328125 -1.640625 3.792969 -1.332031 4.191406 C -0.710938 4.921875 -0.0234375 5.011719 0.777344 4.5 C 0.910156 4.414062 1.042969 4.28125 1.175781 4.167969 C 2.304688 3.214844 3.304688 2.128906 4.324219 1.0625 C 5.566406 -0.242188 6.917969 -1.351562 8.558594 -2.152344 C 9.492188 -2.59375 10.378906 -3.082031 11.355469 -3.4375 C 11.441406 -3.460938 11.53125 -3.480469 11.507812 -3.59375 C 11.507812 -3.679688 11.421875 -3.726562 11.332031 -3.726562 C 11.15625 -3.746094 11.019531 -3.679688 10.886719 -3.613281 C 10.378906 -3.394531 9.867188 -3.171875 9.378906 -2.925781 C 8.40625 -2.460938 7.382812 -2.039062 6.453125 -1.441406 C 5.101562 -0.621094 3.945312 0.464844 2.859375 1.617188 C 2.238281 2.238281 1.683594 2.925781 0.953125 3.414062 C 0.53125 3.703125 0.132812 3.992188 -0.398438 4.015625 C -0.796875 4.035156 -0.910156 3.945312 -0.996094 3.570312 C -1.109375 3.105469 -1.109375 2.640625 -1.0625 2.171875 C -0.886719 0.445312 -0.222656 -1.132812 0.664062 -2.617188 C 1.0625 -3.28125 1.484375 -3.878906 1.886719 -4.523438 C 2.085938 -4.855469 2.039062 -5.121094 1.773438 -5.34375 Z M 2.792969 -6.429688 C 2.992188 -6.363281 3.125 -6.496094 3.105469 -6.695312 C 3.105469 -7.03125 2.726562 -7.363281 2.351562 -7.40625 C 2.152344 -7.429688 2.039062 -7.296875 2.105469 -7.097656 C 2.21875 -6.761719 2.484375 -6.542969 2.792969 -6.429688 Z M 2.792969 -6.429688 "/></g></g></g><g fill="#c28b13" fill-opacity="1"><g transform="translate(139.632495, 32.310705)"><g><path d="M 2.617188 2.238281 C 2.550781 2.394531 2.417969 2.574219 2.574219 2.726562 C 2.726562 2.90625 2.925781 2.859375 3.148438 2.816406 C 3.304688 2.792969 3.414062 2.683594 3.503906 2.574219 C 3.859375 2.128906 4.214844 1.707031 4.390625 1.175781 C 4.457031 0.976562 4.589844 0.820312 4.722656 0.664062 C 5.808594 -0.378906 6.898438 -1.417969 8.136719 -2.304688 C 8.226562 -2.371094 8.382812 -2.417969 8.316406 -2.574219 C 8.25 -2.707031 8.070312 -2.707031 7.9375 -2.660156 C 7.804688 -2.59375 7.671875 -2.527344 7.539062 -2.4375 C 7.050781 -2.128906 6.585938 -1.773438 6.144531 -1.398438 C 5.675781 -0.996094 5.210938 -0.597656 4.703125 -0.15625 C 4.214844 -1.109375 3.703125 -1.375 2.683594 -1.265625 C 2.527344 -1.265625 2.371094 -1.21875 2.21875 -1.199219 C 1.953125 -1.109375 1.707031 -1.042969 1.441406 -0.953125 C 1.0625 -0.84375 0.6875 -0.710938 0.308594 -0.597656 C 0 -0.53125 -0.0664062 -0.621094 -0.0898438 -0.910156 C -0.0898438 -1.199219 -0.0234375 -1.464844 0.0664062 -1.707031 C 0.378906 -2.527344 0.753906 -3.304688 1.265625 -3.992188 C 1.730469 -4.613281 2.21875 -5.1875 2.949219 -5.542969 C 3.4375 -5.765625 3.660156 -5.699219 3.925781 -5.234375 C 4.082031 -4.921875 4.101562 -4.589844 4.058594 -4.234375 C 4.015625 -3.859375 4.234375 -3.660156 4.566406 -3.726562 C 4.789062 -3.769531 4.878906 -3.945312 4.902344 -4.125 C 5.054688 -5.1875 4.8125 -5.964844 3.59375 -6.253906 C 2.882812 -6.410156 2.195312 -6.253906 1.574219 -5.898438 C 0.976562 -5.542969 0.488281 -5.054688 0.0664062 -4.5 C -0.554688 -3.636719 -1.019531 -2.707031 -1.332031 -1.707031 C -1.574219 -0.863281 -1.21875 -0.289062 -0.378906 -0.0898438 C -0.332031 -0.0898438 -0.265625 -0.0898438 -0.222656 -0.0664062 C 0.332031 0.0429688 0.863281 -0.0664062 1.398438 -0.242188 C 1.90625 -0.421875 2.4375 -0.554688 2.992188 -0.6875 C 3.191406 -0.730469 3.347656 -0.664062 3.460938 -0.464844 C 3.769531 0.0429688 3.703125 0.84375 3.261719 1.265625 C 2.949219 1.550781 2.75 1.863281 2.617188 2.238281 Z M 2.617188 2.238281 "/></g></g></g><g clip-path="url(#ae66154825)"><path fill="#c28b13" d="M 53.867188 41.359375 C 53.789062 41.261719 53.671875 41.21875 53.5625 41.21875 C 53.464844 41.21875 53.355469 41.25 53.28125 41.335938 C 53.203125 41.410156 53.171875 41.507812 53.171875 41.605469 C 53.171875 41.695312 53.203125 41.792969 53.269531 41.867188 C 53.996094 42.691406 54.3125 43.667969 54.3125 44.613281 C 54.3125 46.367188 53.203125 48.0625 51.5 48.605469 C 50.914062 48.800781 50.242188 48.886719 49.539062 48.886719 C 48.125 48.886719 46.597656 48.5625 45.414062 48.226562 C 43.441406 47.660156 41.5625 46.847656 39.816406 46 C 38.589844 45.351562 37.453125 45.023438 36.390625 45.023438 C 35.867188 45.023438 35.378906 45.101562 34.902344 45.253906 C 34.882812 45.261719 34.859375 45.261719 34.847656 45.273438 C 33.949219 45.609375 33.265625 46.164062 32.777344 46.671875 C 32.582031 46.523438 32.332031 46.402344 32.191406 46.335938 L 32.074219 46.292969 C 32.953125 44.320312 33.351562 43.429688 34.1875 41.597656 C 34.253906 41.445312 34.285156 41.292969 34.285156 41.164062 C 34.285156 40.792969 34.039062 40.554688 33.753906 40.554688 C 33.527344 40.554688 33.277344 40.707031 33.117188 41.042969 C 32.714844 41.910156 31.933594 43.710938 31.152344 45.664062 C 30.972656 46.113281 30.804688 46.53125 30.648438 46.929688 C 30.375 47.121094 30.097656 47.203125 29.839844 47.203125 C 29.515625 47.203125 29.234375 47.074219 29.027344 46.847656 C 29.386719 45.824219 29.527344 44.992188 29.527344 44.351562 C 29.527344 43.386719 29.210938 42.863281 28.863281 42.863281 C 28.714844 42.863281 28.550781 42.960938 28.398438 43.167969 C 28.117188 43.558594 28.007812 44.046875 28.007812 44.546875 C 28.007812 45.5 28.398438 46.5 28.691406 46.898438 C 27.996094 48.722656 26.78125 49.839844 26.144531 49.839844 L 26.109375 49.839844 C 25.785156 49.804688 25.675781 49.46875 25.675781 49.046875 C 25.675781 48.582031 25.808594 48.015625 25.914062 47.679688 C 26.144531 46.910156 26.523438 46.183594 26.902344 45.488281 C 26.914062 45.46875 26.914062 45.445312 26.914062 45.425781 C 26.914062 45.1875 26.382812 44.894531 26.042969 44.882812 C 25.839844 44.851562 25.621094 44.828125 25.394531 44.828125 C 21.328125 44.828125 15.097656 50.316406 8.253906 50.847656 C 7.960938 50.871094 7.667969 50.890625 7.386719 50.890625 C 6.660156 50.890625 5.953125 50.792969 5.261719 50.511719 C 3.632812 49.851562 2.664062 48.257812 2.664062 46.621094 C 2.664062 45.65625 2.992188 44.6875 3.707031 43.863281 C 3.773438 43.789062 3.804688 43.691406 3.804688 43.59375 C 3.804688 43.496094 3.773438 43.40625 3.695312 43.332031 C 3.621094 43.246094 3.511719 43.210938 3.414062 43.210938 C 3.304688 43.210938 3.1875 43.257812 3.109375 43.351562 C 2.339844 44.277344 1.949219 45.414062 1.949219 46.542969 C 1.949219 47.984375 2.589844 49.429688 3.902344 50.4375 C 4.890625 51.1875 6.015625 51.445312 7.222656 51.445312 L 7.804688 51.425781 C 15.03125 50.9375 21.269531 45.121094 25.304688 45.121094 C 25.445312 45.121094 25.585938 45.132812 25.726562 45.144531 C 25.152344 46.25 24.902344 47.367188 24.902344 48.265625 C 24.902344 49.253906 25.214844 49.96875 25.757812 50.101562 C 25.757812 50.101562 25.898438 50.144531 26.082031 50.144531 L 26.148438 50.144531 C 27.015625 50.144531 28.242188 48.832031 28.90625 47.160156 C 29.152344 47.390625 29.480469 47.519531 29.835938 47.519531 C 30.039062 47.519531 30.253906 47.476562 30.464844 47.382812 C 29.414062 50.085938 28.957031 51.621094 28.957031 53.085938 L 28.957031 53.171875 C 28.96875 53.800781 29.089844 54.820312 29.480469 55.320312 C 29.640625 55.523438 29.871094 55.664062 30.152344 55.722656 L 30.257812 55.753906 C 30.355469 55.773438 30.464844 55.785156 30.550781 55.785156 C 31.355469 55.785156 31.941406 55.167969 32.386719 54.417969 C 33.222656 53.007812 33.65625 51.394531 33.65625 49.765625 C 33.65625 49.320312 33.621094 48.875 33.558594 48.429688 C 33.46875 47.875 33.339844 47.335938 32.992188 46.902344 C 33.492188 46.371094 34.164062 45.785156 34.933594 45.554688 C 34.957031 45.554688 34.976562 45.546875 35 45.535156 C 35.433594 45.394531 35.898438 45.328125 36.367188 45.328125 C 37.386719 45.328125 38.492188 45.644531 39.675781 46.273438 C 42.839844 47.84375 46.324219 49.441406 49.644531 49.441406 C 49.816406 49.441406 50 49.441406 50.175781 49.429688 C 53.253906 49.253906 55.023438 46.933594 55.023438 44.527344 C 55.027344 43.417969 54.660156 42.300781 53.867188 41.359375 Z M 28.808594 46.542969 C 28.613281 46.195312 28.3125 45.351562 28.3125 44.546875 C 28.3125 44.113281 28.40625 43.679688 28.648438 43.355469 C 28.722656 43.246094 28.808594 43.179688 28.875 43.179688 C 29.003906 43.179688 29.222656 43.558594 29.222656 44.339844 C 29.21875 44.871094 29.113281 45.609375 28.808594 46.542969 Z M 32.582031 46.890625 C 32.160156 47.367188 31.933594 47.769531 31.890625 47.84375 C 31.53125 48.453125 31.109375 49.050781 30.683594 49.429688 C 31.03125 48.617188 31.445312 47.683594 31.941406 46.566406 C 32.019531 46.585938 32.355469 46.695312 32.582031 46.890625 Z M 33.257812 48.472656 C 33.320312 48.90625 33.351562 49.34375 33.351562 49.785156 C 33.351562 51.347656 32.929688 52.898438 32.128906 54.253906 C 31.757812 54.882812 31.25 55.472656 30.554688 55.472656 C 30.480469 55.472656 30.402344 55.460938 30.316406 55.449219 C 29.730469 55.339844 29.644531 54.789062 29.589844 54.332031 C 29.566406 54.09375 29.542969 53.867188 29.542969 53.636719 C 29.542969 52.53125 29.859375 51.46875 30.46875 49.972656 L 30.554688 49.925781 C 30.78125 49.777344 31.257812 49.492188 32.160156 47.984375 C 32.160156 47.976562 32.398438 47.597656 32.789062 47.128906 C 33.0625 47.5 33.191406 47.984375 33.257812 48.472656 Z M 33.257812 48.472656 " fill-opacity="1" fill-rule="nonzero"/></g><g fill="#806252" fill-opacity="1"><g transform="translate(61.71599, 45.598599)"><g><path d="M 5.84375 -5.359375 C 5.90625 -5.359375 5.953125 -5.335938 5.984375 -5.296875 C 6.023438 -5.253906 6.046875 -5.207031 6.046875 -5.15625 L 6.046875 -0.203125 C 6.046875 -0.140625 6.023438 -0.0859375 5.984375 -0.046875 C 5.953125 -0.015625 5.90625 0 5.84375 0 C 5.78125 0 5.726562 -0.015625 5.6875 -0.046875 C 5.644531 -0.0859375 5.625 -0.140625 5.625 -0.203125 L 5.625 -4.40625 L 3.546875 -0.171875 C 3.515625 -0.0976562 3.457031 -0.0625 3.375 -0.0625 C 3.289062 -0.0625 3.222656 -0.109375 3.171875 -0.203125 L 1.09375 -4.34375 L 1.09375 -0.203125 C 1.09375 -0.140625 1.070312 -0.0859375 1.03125 -0.046875 C 1 -0.015625 0.953125 0 0.890625 0 C 0.828125 0 0.773438 -0.015625 0.734375 -0.046875 C 0.703125 -0.0859375 0.6875 -0.140625 0.6875 -0.203125 L 0.6875 -5.15625 C 0.6875 -5.207031 0.703125 -5.253906 0.734375 -5.296875 C 0.773438 -5.335938 0.828125 -5.359375 0.890625 -5.359375 C 0.984375 -5.359375 1.046875 -5.320312 1.078125 -5.25 L 3.375 -0.703125 L 5.65625 -5.25 C 5.695312 -5.320312 5.757812 -5.359375 5.84375 -5.359375 Z M 5.84375 -5.359375 "/></g></g></g><g fill="#806252" fill-opacity="1"><g transform="translate(73.199482, 45.598599)"><g><path d="M 4.71875 -0.296875 C 4.726562 -0.265625 4.734375 -0.234375 4.734375 -0.203125 C 4.734375 -0.148438 4.710938 -0.101562 4.671875 -0.0625 C 4.628906 -0.0195312 4.582031 0 4.53125 0 C 4.4375 0 4.367188 -0.0390625 4.328125 -0.125 L 3.828125 -1.34375 L 1.03125 -1.34375 L 0.53125 -0.125 C 0.5 -0.0390625 0.4375 0 0.34375 0 C 0.269531 0 0.210938 -0.0195312 0.171875 -0.0625 C 0.140625 -0.101562 0.125 -0.148438 0.125 -0.203125 C 0.125 -0.234375 0.132812 -0.265625 0.15625 -0.296875 L 2.234375 -5.21875 C 2.265625 -5.3125 2.328125 -5.359375 2.421875 -5.359375 C 2.515625 -5.359375 2.582031 -5.3125 2.625 -5.21875 Z M 1.1875 -1.71875 L 3.671875 -1.71875 L 2.421875 -4.671875 Z M 1.1875 -1.71875 "/></g></g></g><g fill="#806252" fill-opacity="1"><g transform="translate(82.774778, 45.598599)"><g><path d="M 3.9375 -0.3125 C 3.976562 -0.25 4 -0.195312 4 -0.15625 C 4 -0.101562 3.976562 -0.0625 3.9375 -0.03125 C 3.894531 -0.0078125 3.835938 0 3.765625 0 C 3.722656 0 3.6875 -0.0078125 3.65625 -0.03125 C 3.632812 -0.0507812 3.613281 -0.078125 3.59375 -0.109375 L 2.328125 -2.125 L 1.09375 -2.125 L 1.09375 -0.203125 C 1.09375 -0.140625 1.070312 -0.0859375 1.03125 -0.046875 C 1 -0.015625 0.953125 0 0.890625 0 C 0.828125 0 0.773438 -0.015625 0.734375 -0.046875 C 0.703125 -0.0859375 0.6875 -0.140625 0.6875 -0.203125 L 0.6875 -5.15625 C 0.6875 -5.21875 0.703125 -5.265625 0.734375 -5.296875 C 0.773438 -5.335938 0.828125 -5.359375 0.890625 -5.359375 L 2.203125 -5.359375 C 2.535156 -5.359375 2.832031 -5.289062 3.09375 -5.15625 C 3.351562 -5.019531 3.554688 -4.828125 3.703125 -4.578125 C 3.847656 -4.328125 3.921875 -4.046875 3.921875 -3.734375 C 3.921875 -3.359375 3.816406 -3.035156 3.609375 -2.765625 C 3.398438 -2.492188 3.117188 -2.304688 2.765625 -2.203125 Z M 2.203125 -2.53125 C 2.453125 -2.53125 2.675781 -2.582031 2.875 -2.6875 C 3.070312 -2.789062 3.222656 -2.929688 3.328125 -3.109375 C 3.441406 -3.296875 3.5 -3.503906 3.5 -3.734375 C 3.5 -3.960938 3.441406 -4.171875 3.328125 -4.359375 C 3.222656 -4.546875 3.070312 -4.691406 2.875 -4.796875 C 2.675781 -4.898438 2.453125 -4.953125 2.203125 -4.953125 L 1.09375 -4.953125 L 1.09375 -2.53125 Z M 2.203125 -2.53125 "/></g></g></g><g fill="#806252" fill-opacity="1"><g transform="translate(91.697987, 45.598599)"><g><path d="M 0.890625 0 C 0.835938 0 0.789062 -0.015625 0.75 -0.046875 C 0.707031 -0.0859375 0.6875 -0.140625 0.6875 -0.203125 L 0.6875 -5.15625 C 0.6875 -5.207031 0.707031 -5.253906 0.75 -5.296875 C 0.789062 -5.335938 0.835938 -5.359375 0.890625 -5.359375 C 0.953125 -5.359375 1 -5.335938 1.03125 -5.296875 C 1.070312 -5.253906 1.09375 -5.207031 1.09375 -5.15625 L 1.09375 -2.640625 L 3.765625 -5.296875 C 3.804688 -5.335938 3.859375 -5.359375 3.921875 -5.359375 C 3.972656 -5.359375 4.019531 -5.335938 4.0625 -5.296875 C 4.101562 -5.253906 4.125 -5.207031 4.125 -5.15625 C 4.125 -5.101562 4.101562 -5.050781 4.0625 -5 L 2.09375 -3.03125 L 4.078125 -0.328125 C 4.109375 -0.285156 4.125 -0.242188 4.125 -0.203125 C 4.125 -0.148438 4.101562 -0.101562 4.0625 -0.0625 C 4.019531 -0.0195312 3.972656 0 3.921875 0 C 3.847656 0 3.789062 -0.03125 3.75 -0.09375 L 1.796875 -2.734375 L 1.09375 -2.03125 L 1.09375 -0.203125 C 1.09375 -0.140625 1.070312 -0.0859375 1.03125 -0.046875 C 1 -0.015625 0.953125 0 0.890625 0 Z M 0.890625 0 "/></g></g></g><g fill="#806252" fill-opacity="1"><g transform="translate(100.888893, 45.598599)"><g><path d="M 0.890625 0 C 0.828125 0 0.773438 -0.015625 0.734375 -0.046875 C 0.703125 -0.0859375 0.6875 -0.140625 0.6875 -0.203125 L 0.6875 -5.15625 C 0.6875 -5.207031 0.703125 -5.253906 0.734375 -5.296875 C 0.773438 -5.335938 0.828125 -5.359375 0.890625 -5.359375 L 4.1875 -5.359375 C 4.238281 -5.359375 4.285156 -5.335938 4.328125 -5.296875 C 4.367188 -5.253906 4.390625 -5.207031 4.390625 -5.15625 C 4.390625 -5.09375 4.367188 -5.039062 4.328125 -5 C 4.285156 -4.96875 4.238281 -4.953125 4.1875 -4.953125 L 1.09375 -4.953125 L 1.09375 -2.890625 L 3.375 -2.890625 C 3.425781 -2.890625 3.472656 -2.867188 3.515625 -2.828125 C 3.554688 -2.785156 3.578125 -2.738281 3.578125 -2.6875 C 3.578125 -2.625 3.554688 -2.570312 3.515625 -2.53125 C 3.472656 -2.488281 3.425781 -2.46875 3.375 -2.46875 L 1.09375 -2.46875 L 1.09375 -0.40625 L 4.1875 -0.40625 C 4.238281 -0.40625 4.285156 -0.382812 4.328125 -0.34375 C 4.367188 -0.300781 4.390625 -0.253906 4.390625 -0.203125 C 4.390625 -0.140625 4.367188 -0.0859375 4.328125 -0.046875 C 4.285156 -0.015625 4.238281 0 4.1875 0 Z M 0.890625 0 "/></g></g></g><g fill="#806252" fill-opacity="1"><g transform="translate(110.347496, 45.598599)"><g><path d="M 4.171875 -5.359375 C 4.222656 -5.359375 4.265625 -5.335938 4.296875 -5.296875 C 4.335938 -5.265625 4.359375 -5.222656 4.359375 -5.171875 C 4.359375 -5.117188 4.335938 -5.070312 4.296875 -5.03125 C 4.265625 -5 4.222656 -4.984375 4.171875 -4.984375 L 2.4375 -4.984375 L 2.4375 -0.203125 C 2.4375 -0.140625 2.414062 -0.0859375 2.375 -0.046875 C 2.332031 -0.015625 2.285156 0 2.234375 0 C 2.171875 0 2.117188 -0.015625 2.078125 -0.046875 C 2.046875 -0.0859375 2.03125 -0.140625 2.03125 -0.203125 L 2.03125 -4.984375 L 0.28125 -4.984375 C 0.226562 -4.984375 0.1875 -5 0.15625 -5.03125 C 0.125 -5.070312 0.109375 -5.117188 0.109375 -5.171875 C 0.109375 -5.222656 0.125 -5.265625 0.15625 -5.296875 C 0.1875 -5.335938 0.226562 -5.359375 0.28125 -5.359375 Z M 4.171875 -5.359375 "/></g></g></g><g fill="#806252" fill-opacity="1"><g transform="translate(119.558991, 45.598599)"><g><path d="M 0.890625 0 C 0.828125 0 0.773438 -0.015625 0.734375 -0.046875 C 0.703125 -0.0859375 0.6875 -0.140625 0.6875 -0.203125 L 0.6875 -5.15625 C 0.6875 -5.207031 0.703125 -5.253906 0.734375 -5.296875 C 0.773438 -5.335938 0.828125 -5.359375 0.890625 -5.359375 C 0.953125 -5.359375 1 -5.335938 1.03125 -5.296875 C 1.070312 -5.253906 1.09375 -5.207031 1.09375 -5.15625 L 1.09375 -0.203125 C 1.09375 -0.140625 1.070312 -0.0859375 1.03125 -0.046875 C 1 -0.015625 0.953125 0 0.890625 0 Z M 0.890625 0 "/></g></g></g><g fill="#806252" fill-opacity="1"><g transform="translate(126.09352, 45.598599)"><g><path d="M 0.890625 0 C 0.828125 0 0.773438 -0.015625 0.734375 -0.046875 C 0.703125 -0.0859375 0.6875 -0.140625 0.6875 -0.203125 L 0.6875 -5.15625 C 0.6875 -5.207031 0.703125 -5.253906 0.734375 -5.296875 C 0.773438 -5.335938 0.828125 -5.359375 0.890625 -5.359375 C 0.953125 -5.359375 1.003906 -5.332031 1.046875 -5.28125 L 4.53125 -0.75 L 4.53125 -5.15625 C 4.53125 -5.207031 4.550781 -5.253906 4.59375 -5.296875 C 4.632812 -5.335938 4.679688 -5.359375 4.734375 -5.359375 C 4.796875 -5.359375 4.847656 -5.335938 4.890625 -5.296875 C 4.929688 -5.253906 4.953125 -5.207031 4.953125 -5.15625 L 4.953125 -0.203125 C 4.953125 -0.140625 4.929688 -0.0859375 4.890625 -0.046875 C 4.847656 -0.015625 4.796875 0 4.734375 0 C 4.671875 0 4.625 -0.0195312 4.59375 -0.0625 L 1.09375 -4.609375 L 1.09375 -0.203125 C 1.09375 -0.140625 1.070312 -0.0859375 1.03125 -0.046875 C 1 -0.015625 0.953125 0 0.890625 0 Z M 0.890625 0 "/></g></g></g><g fill="#806252" fill-opacity="1"><g transform="translate(136.478766, 45.598599)"><g><path d="M 4.625 -2.609375 C 4.6875 -2.609375 4.734375 -2.585938 4.765625 -2.546875 C 4.804688 -2.515625 4.828125 -2.46875 4.828125 -2.40625 L 4.828125 -0.671875 C 4.828125 -0.640625 4.820312 -0.613281 4.8125 -0.59375 C 4.8125 -0.570312 4.800781 -0.546875 4.78125 -0.515625 C 4.382812 -0.128906 3.820312 0.0625 3.09375 0.0625 C 2.613281 0.0625 2.164062 -0.0546875 1.75 -0.296875 C 1.34375 -0.546875 1.015625 -0.882812 0.765625 -1.3125 C 0.523438 -1.738281 0.40625 -2.195312 0.40625 -2.6875 C 0.40625 -3.175781 0.523438 -3.628906 0.765625 -4.046875 C 1.003906 -4.460938 1.328125 -4.796875 1.734375 -5.046875 C 2.148438 -5.296875 2.601562 -5.421875 3.09375 -5.421875 C 3.726562 -5.421875 4.289062 -5.21875 4.78125 -4.8125 C 4.820312 -4.78125 4.84375 -4.734375 4.84375 -4.671875 C 4.84375 -4.617188 4.820312 -4.570312 4.78125 -4.53125 C 4.75 -4.488281 4.703125 -4.46875 4.640625 -4.46875 C 4.585938 -4.46875 4.53125 -4.492188 4.46875 -4.546875 C 4.125 -4.859375 3.664062 -5.015625 3.09375 -5.015625 C 2.6875 -5.015625 2.304688 -4.90625 1.953125 -4.6875 C 1.609375 -4.476562 1.332031 -4.191406 1.125 -3.828125 C 0.925781 -3.472656 0.828125 -3.09375 0.828125 -2.6875 C 0.828125 -2.257812 0.925781 -1.863281 1.125 -1.5 C 1.332031 -1.144531 1.609375 -0.863281 1.953125 -0.65625 C 2.304688 -0.445312 2.6875 -0.34375 3.09375 -0.34375 C 3.59375 -0.34375 4.035156 -0.484375 4.421875 -0.765625 L 4.421875 -2.234375 L 3.265625 -2.234375 C 3.203125 -2.234375 3.148438 -2.25 3.109375 -2.28125 C 3.078125 -2.320312 3.0625 -2.367188 3.0625 -2.421875 C 3.0625 -2.472656 3.078125 -2.515625 3.109375 -2.546875 C 3.148438 -2.585938 3.203125 -2.609375 3.265625 -2.609375 Z M 4.625 -2.609375 "/></g></g></g></svg>